<svg width="357.919970703125px" height="339.72001953125px" xmlns="http://www.w3.org/2000/svg" viewBox="71.0400146484375 -94.860009765625 357.919970703125 339.72001953125" style="background: none;" preserveAspectRatio="xMidYMid"><defs><filter id="editing-extrude-glow"><feFlood flood-color="#333333" result="flood-1"></feFlood><feMorphology operator="erode" radius="1" in="SourceAlpha" result="erode"></feMorphology><feComposite operator="in" in="flood-1" in2="erode" result="comp1"></feComposite><feConvolveMatrix order="3,3" divisor="1" in="comp1" result="convolve" kernelMatrix="0 0 0 1 1 1 0 0 0"></feConvolveMatrix><feOffset dx="-3" dy="0" in="convolve" result="extrude"></feOffset><feComposite operator="in" in="flood-1" in2="extrude" result="comp-extrude"></feComposite><feFlood flood-color="#000000" result="flood-2"></feFlood><feComposite operator="in" in="flood-2" in2="SourceAlpha" result="comp2"></feComposite><feMorphology operator="dilate" radius="1" in="comp2" result="dilate"></feMorphology><feOffset dx="-4.5" dy="0" in="dilate" result="offset"></feOffset><feGaussianBlur in="offset" stdDeviation="5.8" result="blur"></feGaussianBlur><feComponentTransfer in="blur" result="shadow"><feFuncA type="linear" slope="0.8" intercept="-0.2"></feFuncA></feComponentTransfer><feMerge><feMergeNode in="shadow"></feMergeNode><feMergeNode in="comp-extrude"></feMergeNode><feMergeNode in="SourceGraphic"></feMergeNode></feMerge></filter></defs><g filter="url(#editing-extrude-glow)"><g transform="translate(139.49999845027924, 144.8000030517578)"><path d="M88.80-30.80L88.80-30.80L88.80-30.80Q92.60-26 92.60-18.20L92.60-18.20L92.60-18.20Q92.60-7.40 84.60-1.70L84.60-1.70L84.60-1.70Q76.60 4 64 4L64 4L64 4Q56.80 4 45.80 2.40L45.80 2.40L45.80 2.40Q24.20-1 17.60-1L17.60-1L17.60-1Q11-1 8.40-0.70L8.40-0.70L8.40-0.70Q5.80-0.40 1.60 0L1.60 0L26.20-132L112.40-132L112.40-132Q112.40-119.80 106.50-113.40L106.50-113.40L106.50-113.40Q100.60-107 89-107L89-107L89-107Q77.40-107 65.60-112.40L65.60-112.40L59.40-77.40L95-77.40L95-77.40Q95-66.80 89.80-60.90L89.80-60.90L89.80-60.90Q84.60-55 75.90-55L75.90-55L75.90-55Q67.20-55 61.80-57L61.80-57L61.80-57Q56.40-59 55.80-59.60L55.80-59.60L48.60-21.80L48.60-21.80Q53.40-21.20 62.40-21.20L62.40-21.20L62.40-21.20Q77.80-21.20 88.80-30.80ZM117.20-124.60L117.20-124.60L117.20-124.60Q126.60-135.60 142.20-135.60L142.20-135.60L142.20-135.60Q154.60-135.60 161.20-130.80L161.20-130.80L161.20-130.80Q167.80-125.80 172.20-113.60L172.20-113.60L180.60-89.80L210.80-131.80L237.80-131.80L188.80-66.80L201.40-31.20L201.40-31.20Q204.20-23.20 209.10-17.30L209.10-17.30L209.10-17.30Q214-11.40 218.40-10.40L218.40-10.40L218.40-10.40Q214.40-2.80 207.50 0.60L207.50 0.60L207.50 0.60Q200.60 4 190.50 4L190.50 4L190.50 4Q180.40 4 173.30-2.60L173.30-2.60L173.30-2.60Q166.20-9.20 160.80-24L160.80-24L155-40L124.80 0L100.20 0L146.20-63.80L131.80-104L131.80-104Q128.60-112.80 125.40-117.30L125.40-117.30L125.40-117.30Q122.20-121.80 117.20-124.60Z" fill="#eb6c6c"></path></g></g><style>text {
  font-size: 64px;
  font-family: Arial Black;
  dominant-baseline: central;
  text-anchor: middle;
}</style></svg>