<svg width="206.74000244140623px" height="195.72000122070312px" xmlns="http://www.w3.org/2000/svg" viewBox="146.6299987792969 -22.860000610351562 206.74000244140623 195.72000122070312" style="background: none;" preserveAspectRatio="xMidYMid"><defs><filter id="editing-extrude-glow"><feFlood flood-color="#333333" result="flood-1"></feFlood><feMorphology operator="erode" radius="1" in="SourceAlpha" result="erode"></feMorphology><feComposite operator="in" in="flood-1" in2="erode" result="comp1"></feComposite><feConvolveMatrix order="3,3" divisor="1" in="comp1" result="convolve" kernelMatrix="0 0 0 1 1 1 0 0 0"></feConvolveMatrix><feOffset dx="-3" dy="0" in="convolve" result="extrude"></feOffset><feComposite operator="in" in="flood-1" in2="extrude" result="comp-extrude"></feComposite><feFlood flood-color="#000000" result="flood-2"></feFlood><feComposite operator="in" in="flood-2" in2="SourceAlpha" result="comp2"></feComposite><feMorphology operator="dilate" radius="1" in="comp2" result="dilate"></feMorphology><feOffset dx="-4.5" dy="0" in="dilate" result="offset"></feOffset><feGaussianBlur in="offset" stdDeviation="5.8" result="blur"></feGaussianBlur><feComponentTransfer in="blur" result="shadow"><feFuncA type="linear" slope="0.8" intercept="-0.2"></feFuncA></feComponentTransfer><feMerge><feMergeNode in="shadow"></feMergeNode><feMergeNode in="comp-extrude"></feMergeNode><feMergeNode in="SourceGraphic"></feMergeNode></feMerge></filter></defs><g filter="url(#editing-extrude-glow)"><g transform="translate(189.23118317127228, 113.38999938964844)"><path d="M48.84-16.94L48.84-16.94L48.84-16.94Q50.93-14.30 50.93-10.01L50.93-10.01L50.93-10.01Q50.93-4.07 46.53-0.94L46.53-0.94L46.53-0.94Q42.13 2.20 35.20 2.20L35.20 2.20L35.20 2.20Q31.24 2.20 25.19 1.32L25.19 1.32L25.19 1.32Q13.31-0.55 9.68-0.55L9.68-0.55L9.68-0.55Q6.05-0.55 4.62-0.39L4.62-0.39L4.62-0.39Q3.19-0.22 0.88 0L0.88 0L14.41-72.60L61.82-72.60L61.82-72.60Q61.82-65.89 58.58-62.37L58.58-62.37L58.58-62.37Q55.33-58.85 48.95-58.85L48.95-58.85L48.95-58.85Q42.57-58.85 36.08-61.82L36.08-61.82L32.67-42.57L52.25-42.57L52.25-42.57Q52.25-36.74 49.39-33.49L49.39-33.49L49.39-33.49Q46.53-30.25 41.74-30.25L41.74-30.25L41.74-30.25Q36.96-30.25 33.99-31.35L33.99-31.35L33.99-31.35Q31.02-32.45 30.69-32.78L30.69-32.78L26.73-11.99L26.73-11.99Q29.37-11.66 34.32-11.66L34.32-11.66L34.32-11.66Q42.79-11.66 48.84-16.94ZM64.46-68.53L64.46-68.53L64.46-68.53Q69.63-74.58 78.21-74.58L78.21-74.58L78.21-74.58Q85.03-74.58 88.66-71.94L88.66-71.94L88.66-71.94Q92.29-69.19 94.71-62.48L94.71-62.48L99.33-49.39L115.94-72.49L130.79-72.49L103.84-36.74L110.77-17.16L110.77-17.16Q112.31-12.76 115.00-9.52L115.00-9.52L115.00-9.52Q117.70-6.27 120.12-5.72L120.12-5.72L120.12-5.72Q117.92-1.54 114.13 0.33L114.13 0.33L114.13 0.33Q110.33 2.20 104.78 2.20L104.78 2.20L104.78 2.20Q99.22 2.20 95.31-1.43L95.31-1.43L95.31-1.43Q91.41-5.06 88.44-13.20L88.44-13.20L85.25-22L68.64 0L55.11 0L80.41-35.09L72.49-57.20L72.49-57.20Q70.73-62.04 68.97-64.52L68.97-64.52L68.97-64.52Q67.21-66.99 64.46-68.53Z" fill="#eb6c6c"></path></g></g><style>text {
  font-size: 64px;
  font-family: Arial Black;
  dominant-baseline: central;
  text-anchor: middle;
}</style></svg>